<svg width="720" height="900" viewBox="0 0 720 900" fill="none" xmlns="http://www.w3.org/2000/svg">
<g opacity="0.5" filter="url(#filter0_f_206_3)">
<path d="M1201.29 394.043C1201.29 433.919 1166.32 470.023 1109.79 496.152C1053.26 522.285 975.161 538.448 888.893 538.448C802.625 538.448 724.531 522.285 667.996 496.152C611.462 470.019 576.497 433.919 576.497 394.043C576.497 354.168 611.462 318.064 667.996 291.935C724.531 265.801 802.625 249.639 888.893 249.639C975.161 249.639 1053.26 265.801 1109.79 291.935C1166.32 318.068 1201.29 354.168 1201.29 394.043Z" fill="#633BBC"/>
</g>
<path d="M72.4651 190.806C72.314 189.598 72.1931 189.477 70.9541 189.296C72.1629 189.145 72.2837 189.024 72.4651 187.786C72.6161 188.994 72.737 189.114 73.976 189.296C72.7672 189.447 72.6464 189.598 72.4651 190.806Z" fill="white" fill-opacity="0.1"/>
<path d="M85.7815 24.3301C85.6304 23.122 85.5095 23.0012 84.2705 22.8199C85.4793 22.6688 85.6002 22.548 85.7815 21.3097C85.9326 22.5179 86.0535 22.6386 87.2924 22.8199C86.0837 22.9708 85.9628 23.122 85.7815 24.3301Z" fill="white" fill-opacity="0.1"/>
<path d="M171.229 129.383C171.078 128.174 170.957 128.054 169.718 127.872C170.927 127.721 171.048 127.6 171.229 126.362C171.38 127.57 171.501 127.691 172.74 127.872C171.531 128.023 171.411 128.174 171.229 129.383Z" fill="white" fill-opacity="0.1"/>
<path d="M262.951 38.7029C262.951 39.32 262.45 39.8205 261.832 39.8205C261.215 39.8205 260.714 39.32 260.714 38.7029C260.714 38.0856 261.215 37.5854 261.832 37.5854C262.45 37.5854 262.951 38.0856 262.951 38.7029Z" fill="white" fill-opacity="0.1"/>
<path d="M108.895 89.2197C108.895 89.8368 108.394 90.3373 107.777 90.3373C107.159 90.3373 106.659 89.8368 106.659 89.2197C106.659 88.6024 107.159 88.1022 107.777 88.1022C108.394 88.1022 108.895 88.6024 108.895 89.2197Z" fill="white" fill-opacity="0.1"/>
<path d="M114.25 192.583C114.25 193.2 113.749 193.7 113.132 193.7C112.514 193.7 112.014 193.2 112.014 192.583C112.014 191.965 112.514 191.465 113.132 191.465C113.749 191.465 114.25 191.965 114.25 192.583Z" fill="white" fill-opacity="0.1"/>
<path d="M129.723 132.287C129.723 132.904 129.223 133.405 128.605 133.405C127.988 133.405 127.487 132.904 127.487 132.287C127.487 131.67 127.988 131.17 128.605 131.17C129.223 131.17 129.723 131.67 129.723 132.287Z" fill="white" fill-opacity="0.1"/>
<path d="M330.332 22.1235C329.553 22.9019 328.29 22.9019 327.511 22.1235C326.733 21.3449 326.733 20.0827 327.511 19.3044C328.29 18.5257 329.553 18.5257 330.332 19.3044C331.111 20.0827 331.111 21.3449 330.332 22.1235Z" fill="white" fill-opacity="0.15"/>
<path d="M211.904 89.3797C211.904 89.9968 211.404 90.4972 210.786 90.4972C210.168 90.4972 209.668 89.9968 209.668 89.3797C209.668 88.7623 210.168 88.2621 210.786 88.2621C211.404 88.2621 211.904 88.7623 211.904 89.3797Z" fill="white" fill-opacity="0.15"/>
<path d="M149.405 15.0826C149.254 13.8744 149.133 13.7536 147.894 13.5724C149.103 13.4212 149.224 13.3004 149.405 12.0621C149.556 13.2703 149.677 13.3911 150.916 13.5724C149.707 13.7232 149.586 13.8744 149.405 15.0826Z" fill="white" fill-opacity="0.1"/>
<path d="M178.196 93.1308C178.044 91.9226 177.924 91.8018 176.685 91.6206C177.893 91.4694 178.014 91.3487 178.196 90.1104C178.347 91.3185 178.468 91.4393 179.706 91.6206C178.498 91.7715 178.377 91.9226 178.196 93.1308Z" fill="white" fill-opacity="0.1"/>
<path d="M499.223 395.39C499.374 396.598 499.495 396.719 500.734 396.9C499.525 397.051 499.404 397.172 499.223 398.411C499.072 397.202 498.951 397.082 497.712 396.9C498.921 396.749 499.042 396.598 499.223 395.39Z" fill="white" fill-opacity="0.1"/>
<path d="M582.821 151.605C582.972 152.813 583.093 152.934 584.332 153.115C583.123 153.266 583.002 153.387 582.821 154.625C582.67 153.417 582.549 153.296 581.31 153.115C582.519 152.964 582.64 152.813 582.821 151.605Z" fill="white" fill-opacity="0.1"/>
<path d="M569.505 318.08C569.656 319.289 569.777 319.409 571.016 319.591C569.807 319.742 569.686 319.862 569.505 321.101C569.354 319.893 569.233 319.772 567.994 319.591C569.202 319.44 569.323 319.289 569.505 318.08Z" fill="white" fill-opacity="0.1"/>
<path d="M484.057 213.028C484.208 214.236 484.329 214.357 485.568 214.538C484.359 214.689 484.238 214.81 484.057 216.048C483.906 214.84 483.785 214.719 482.546 214.538C483.755 214.387 483.876 214.236 484.057 213.028Z" fill="white" fill-opacity="0.1"/>
<path d="M608.05 397.293C608.05 396.676 608.55 396.175 609.168 396.175C609.786 396.175 610.286 396.676 610.286 397.293C610.286 397.91 609.786 398.411 609.168 398.411C608.55 398.411 608.05 397.91 608.05 397.293Z" fill="white" fill-opacity="0.1"/>
<path d="M392.335 303.708C392.335 303.09 392.836 302.59 393.454 302.59C394.071 302.59 394.572 303.09 394.572 303.708C394.572 304.325 394.071 304.825 393.454 304.825C392.836 304.825 392.335 304.325 392.335 303.708Z" fill="white" fill-opacity="0.1"/>
<path d="M546.391 253.191C546.391 252.574 546.892 252.073 547.509 252.073C548.127 252.073 548.627 252.574 548.627 253.191C548.627 253.808 548.127 254.308 547.509 254.308C546.892 254.308 546.391 253.808 546.391 253.191Z" fill="white" fill-opacity="0.1"/>
<path d="M541.036 149.828C541.036 149.211 541.537 148.71 542.154 148.71C542.772 148.71 543.272 149.211 543.272 149.828C543.272 150.445 542.772 150.945 542.154 150.945C541.537 150.945 541.036 150.445 541.036 149.828Z" fill="white" fill-opacity="0.1"/>
<path d="M525.563 210.123C525.563 209.506 526.063 209.006 526.681 209.006C527.298 209.006 527.799 209.506 527.799 210.123C527.799 210.741 527.298 211.241 526.681 211.241C526.063 211.241 525.563 210.741 525.563 210.123Z" fill="white" fill-opacity="0.1"/>
<path d="M318.898 385.346C319.906 384.9 321.084 385.355 321.529 386.362C321.975 387.369 321.52 388.546 320.513 388.992C319.506 389.437 318.328 388.983 317.882 387.976C317.436 386.969 317.891 385.792 318.898 385.346Z" fill="white" fill-opacity="0.15"/>
<path d="M473.071 368.674C473.071 367.573 473.964 366.681 475.065 366.681C476.167 366.681 477.06 367.573 477.06 368.674C477.06 369.775 476.167 370.668 475.065 370.668C473.964 370.668 473.071 369.775 473.071 368.674Z" fill="white" fill-opacity="0.15"/>
<path d="M324.954 320.287C325.733 319.509 326.996 319.509 327.775 320.287C328.554 321.066 328.554 322.328 327.775 323.106C326.996 323.885 325.733 323.885 324.954 323.106C324.175 322.328 324.175 321.066 324.954 320.287Z" fill="white" fill-opacity="0.15"/>
<path d="M350.167 369.55C350.167 368.933 350.667 368.433 351.285 368.433C351.902 368.433 352.403 368.933 352.403 369.55C352.403 370.168 351.902 370.668 351.285 370.668C350.667 370.668 350.167 370.168 350.167 369.55Z" fill="white" fill-opacity="0.15"/>
<path d="M443.382 253.031C443.382 252.414 443.883 251.913 444.5 251.913C445.118 251.913 445.618 252.414 445.618 253.031C445.618 253.648 445.118 254.148 444.5 254.148C443.883 254.148 443.382 253.648 443.382 253.031Z" fill="white" fill-opacity="0.15"/>
<path d="M505.881 327.328C506.032 328.536 506.153 328.657 507.392 328.838C506.183 328.989 506.062 329.11 505.881 330.348C505.73 329.14 505.609 329.019 504.37 328.838C505.579 328.687 505.7 328.536 505.881 327.328Z" fill="white" fill-opacity="0.1"/>
<path d="M400.521 375.417C400.672 376.625 400.793 376.746 402.032 376.927C400.823 377.078 400.702 377.199 400.521 378.437C400.37 377.229 400.249 377.108 399.01 376.927C400.219 376.776 400.339 376.625 400.521 375.417Z" fill="white" fill-opacity="0.1"/>
<path d="M477.091 249.28C477.242 250.488 477.363 250.609 478.602 250.79C477.393 250.941 477.272 251.062 477.091 252.3C476.94 251.092 476.819 250.971 475.58 250.79C476.788 250.639 476.909 250.488 477.091 249.28Z" fill="white" fill-opacity="0.1"/>
<path d="M544.783 364.32C544.934 365.528 545.055 365.648 546.294 365.83C545.085 365.981 544.964 366.102 544.783 367.34C544.632 366.132 544.511 366.011 543.272 365.83C544.481 365.679 544.602 365.528 544.783 364.32Z" fill="white" fill-opacity="0.1"/>
<path d="M636.659 598.202C636.81 596.994 636.931 596.873 638.169 596.692C636.961 596.54 636.84 596.42 636.659 595.181C636.508 596.39 636.387 596.51 635.148 596.692C636.356 596.843 636.477 596.994 636.659 598.202Z" fill="white" fill-opacity="0.1"/>
<path d="M720.303 740.362C720.454 739.154 720.574 739.033 721.813 738.852C720.605 738.701 720.484 738.58 720.303 737.341C720.151 738.55 720.031 738.67 718.792 738.852C720 739.003 720.121 739.154 720.303 740.362Z" fill="white" fill-opacity="0.1"/>
<path d="M624.063 732.025C624.214 730.816 624.335 730.696 625.574 730.514C624.365 730.363 624.244 730.243 624.063 729.004C623.912 730.212 623.791 730.333 622.552 730.514C623.761 730.665 623.881 730.816 624.063 732.025Z" fill="white" fill-opacity="0.1"/>
<path d="M459.231 640.139C459.382 638.931 459.503 638.81 460.742 638.629C459.533 638.478 459.413 638.357 459.231 637.119C459.08 638.327 458.959 638.448 457.72 638.629C458.929 638.78 459.05 638.931 459.231 640.139Z" fill="white" fill-opacity="0.1"/>
<path d="M547.944 544.196C548.095 542.988 548.216 542.867 549.455 542.686C548.246 542.534 548.125 542.414 547.944 541.175C547.793 542.383 547.672 542.504 546.433 542.686C547.642 542.836 547.763 542.988 547.944 544.196Z" fill="white" fill-opacity="0.1"/>
<path d="M567.153 590.203C567.153 590.82 567.653 591.32 568.271 591.32C568.888 591.32 569.389 590.82 569.389 590.203C569.389 589.585 568.888 589.085 568.271 589.085C567.653 589.085 567.153 589.585 567.153 590.203Z" fill="white" fill-opacity="0.1"/>
<path d="M401.061 698.068C401.061 698.685 401.562 699.185 402.179 699.185C402.797 699.185 403.297 698.685 403.297 698.068C403.297 697.45 402.797 696.95 402.179 696.95C401.562 696.95 401.061 697.45 401.061 698.068Z" fill="white" fill-opacity="0.1"/>
<path d="M657.774 622.607C657.774 623.224 658.275 623.725 658.892 623.725C659.51 623.725 660.01 623.224 660.01 622.607C660.01 621.99 659.51 621.49 658.892 621.49C658.275 621.49 657.774 621.99 657.774 622.607Z" fill="white" fill-opacity="0.1"/>
<path d="M446.595 540.118C446.595 540.735 447.095 541.235 447.713 541.235C448.33 541.235 448.831 540.735 448.831 540.118C448.831 539.5 448.33 539 447.713 539C447.095 539 446.595 539.5 446.595 540.118Z" fill="white" fill-opacity="0.1"/>
<path d="M684.407 665.886C684.407 666.503 684.907 667.003 685.525 667.003C686.142 667.003 686.643 666.503 686.643 665.886C686.643 665.269 686.142 664.768 685.525 664.768C684.907 664.768 684.407 665.269 684.407 665.886Z" fill="white" fill-opacity="0.1"/>
<path d="M649.618 755.133C649.618 755.751 650.118 756.251 650.736 756.251C651.353 756.251 651.854 755.751 651.854 755.133C651.854 754.516 651.353 754.016 650.736 754.016C650.118 754.016 649.618 754.516 649.618 755.133Z" fill="white" fill-opacity="0.1"/>
<path d="M629.599 646.651C629.599 647.268 630.1 647.769 630.717 647.769C631.335 647.769 631.835 647.268 631.835 646.651C631.835 646.034 631.335 645.534 630.717 645.534C630.1 645.534 629.599 646.034 629.599 646.651Z" fill="white" fill-opacity="0.1"/>
<path d="M645.275 690.136C646.282 690.582 647.46 690.127 647.906 689.12C648.352 688.114 647.897 686.936 646.889 686.49C645.882 686.045 644.704 686.5 644.258 687.506C643.812 688.513 644.268 689.69 645.275 690.136Z" fill="white" fill-opacity="0.15"/>
<path d="M498.571 684.59C498.571 685.691 499.464 686.584 500.565 686.584C501.667 686.584 502.56 685.691 502.56 684.59C502.56 683.489 501.667 682.597 500.565 682.597C499.464 682.597 498.571 683.489 498.571 684.59Z" fill="white" fill-opacity="0.15"/>
<path d="M564.711 651.624C565.489 652.402 566.752 652.402 567.531 651.624C568.31 650.845 568.31 649.583 567.531 648.805C566.752 648.026 565.489 648.026 564.71 648.805C563.932 649.583 563.932 650.845 564.711 651.624Z" fill="white" fill-opacity="0.15"/>
<path d="M636.628 548.997C636.628 549.614 637.128 550.114 637.746 550.114C638.363 550.114 638.864 549.614 638.864 548.997C638.864 548.38 638.363 547.879 637.746 547.879C637.128 547.879 636.628 548.38 636.628 548.997Z" fill="white" fill-opacity="0.15"/>
<path d="M514.251 580.068C514.251 580.685 514.752 581.186 515.369 581.186C515.987 581.186 516.487 580.685 516.487 580.068C516.487 579.451 515.987 578.951 515.369 578.951C514.752 578.951 514.251 579.451 514.251 580.068Z" fill="white" fill-opacity="0.15"/>
<path d="M502.674 754.061C502.825 752.852 502.946 752.732 504.185 752.55C502.976 752.399 502.855 752.278 502.674 751.04C502.523 752.248 502.402 752.369 501.163 752.55C502.371 752.701 502.492 752.852 502.674 754.061Z" fill="white" fill-opacity="0.1"/>
<path d="M415.149 611.148C415.3 609.94 415.421 609.819 416.66 609.638C415.451 609.487 415.33 609.366 415.149 608.128C414.998 609.336 414.877 609.456 413.638 609.638C414.847 609.789 414.967 609.94 415.149 611.148Z" fill="white" fill-opacity="0.1"/>
<path d="M359.511 663.768C359.662 662.56 359.782 662.439 361.021 662.258C359.813 662.107 359.692 661.986 359.511 660.748C359.359 661.956 359.239 662.076 358 662.258C359.208 662.409 359.329 662.56 359.511 663.768Z" fill="white" fill-opacity="0.1"/>
<path d="M445.301 775.957C445.452 777.165 445.573 777.286 446.812 777.467C445.603 777.618 445.482 777.739 445.301 778.977C445.149 777.769 445.029 777.648 443.79 777.467C444.998 777.316 445.119 777.165 445.301 775.957Z" fill="white" fill-opacity="0.1"/>
<path d="M349.061 784.294C349.212 785.502 349.333 785.623 350.572 785.804C349.363 785.956 349.242 786.076 349.061 787.315C348.91 786.106 348.789 785.986 347.55 785.804C348.759 785.653 348.879 785.502 349.061 784.294Z" fill="white" fill-opacity="0.1"/>
<path d="M149.764 718C149.916 719.208 150.036 719.329 151.275 719.51C150.067 719.661 149.946 719.782 149.764 721.02C149.613 719.812 149.492 719.691 148.253 719.51C149.462 719.359 149.583 719.208 149.764 718Z" fill="white" fill-opacity="0.1"/>
<path d="M126.059 818.251C126.059 817.634 126.56 817.134 127.177 817.134C127.795 817.134 128.295 817.634 128.295 818.251C128.295 818.869 127.795 819.369 127.177 819.369C126.56 819.369 126.059 818.869 126.059 818.251Z" fill="white" fill-opacity="0.1"/>
<path d="M382.772 893.712C382.772 893.095 383.273 892.594 383.89 892.594C384.508 892.594 385.008 893.095 385.008 893.712C385.008 894.329 384.508 894.829 383.89 894.829C383.273 894.829 382.772 894.329 382.772 893.712Z" fill="white" fill-opacity="0.1"/>
<path d="M409.405 850.433C409.405 849.816 409.905 849.315 410.523 849.315C411.14 849.315 411.641 849.816 411.641 850.433C411.641 851.05 411.14 851.55 410.523 851.55C409.905 851.55 409.405 851.05 409.405 850.433Z" fill="white" fill-opacity="0.1"/>
<path d="M374.616 761.185C374.616 760.568 375.116 760.068 375.734 760.068C376.351 760.068 376.852 760.568 376.852 761.185C376.852 761.803 376.351 762.303 375.734 762.303C375.116 762.303 374.616 761.803 374.616 761.185Z" fill="white" fill-opacity="0.1"/>
<path d="M354.597 869.668C354.597 869.05 355.098 868.55 355.715 868.55C356.333 868.55 356.833 869.05 356.833 869.668C356.833 870.285 356.333 870.785 355.715 870.785C355.098 870.785 354.597 870.285 354.597 869.668Z" fill="white" fill-opacity="0.1"/>
<path d="M370.273 826.183C371.28 825.737 372.458 826.192 372.904 827.199C373.35 828.205 372.895 829.383 371.887 829.828C370.88 830.274 369.702 829.819 369.256 828.812C368.81 827.806 369.266 826.629 370.273 826.183Z" fill="white" fill-opacity="0.15"/>
<path d="M223.569 831.728C223.569 830.627 224.462 829.735 225.564 829.735C226.665 829.735 227.558 830.627 227.558 831.728C227.558 832.829 226.665 833.722 225.564 833.722C224.462 833.722 223.569 832.829 223.569 831.728Z" fill="white" fill-opacity="0.15"/>
<path d="M289.709 864.695C290.487 863.917 291.75 863.917 292.529 864.695C293.308 865.474 293.308 866.736 292.529 867.514C291.75 868.293 290.487 868.293 289.709 867.514C288.93 866.736 288.93 865.474 289.709 864.695Z" fill="white" fill-opacity="0.15"/>
<path d="M227.672 762.258C227.823 763.466 227.944 763.587 229.183 763.769C227.974 763.92 227.853 764.04 227.672 765.279C227.521 764.071 227.4 763.95 226.161 763.769C227.369 763.618 227.49 763.466 227.672 762.258Z" fill="white" fill-opacity="0.1"/>
<path d="M86.511 752.031C86.6621 753.239 86.783 753.36 88.022 753.541C86.8132 753.692 86.6923 753.813 86.511 755.051C86.3599 753.843 86.239 753.723 85.0001 753.541C86.2088 753.39 86.3297 753.239 86.511 752.031Z" fill="white" fill-opacity="0.1"/>
<defs>
<filter id="filter0_f_206_3" x="187.829" y="-139.029" width="1402.13" height="1066.14" filterUnits="userSpaceOnUse" color-interpolation-filters="sRGB">
<feFlood flood-opacity="0" result="BackgroundImageFix"/>
<feBlend mode="normal" in="SourceGraphic" in2="BackgroundImageFix" result="shape"/>
<feGaussianBlur stdDeviation="194.334" result="effect1_foregroundBlur_206_3"/>
</filter>
</defs>
</svg>
