<svg width="162" height="49" viewBox="0 0 162 49" fill="none" xmlns="http://www.w3.org/2000/svg">
<path fill-rule="evenodd" clip-rule="evenodd" d="M49.8134 11.2616C49.8134 5.31812 54.6315 0.5 60.5749 0.5H101.425C107.368 0.5 112.187 5.31812 112.187 11.2616C112.187 17.205 107.368 22.0231 101.425 22.0231H85.4533C84.0854 22.0231 82.9765 23.1321 82.9765 24.5C82.9765 25.8679 84.0854 26.9769 85.4533 26.9769H150.621C156.564 26.9769 161.382 31.795 161.382 37.7384C161.382 43.6819 156.564 48.5 150.621 48.5H11.3792C5.43579 48.5 0.617676 43.6819 0.617676 37.7384C0.617676 31.795 5.43579 26.9769 11.3792 26.9769H76.5464C77.9143 26.9769 79.0232 25.8679 79.0232 24.5C79.0232 23.1321 77.9143 22.0231 76.5464 22.0231H60.5749C54.6315 22.0231 49.8134 17.205 49.8134 11.2616ZM64.3691 42.3854C63.615 42.3854 63.0252 42.2794 62.6011 42.0647C62.1757 41.8513 61.8788 41.5319 61.7092 41.1038C61.5395 40.677 61.4547 40.1495 61.4547 39.5187V35.9495C61.4547 34.925 61.6826 34.1695 62.1399 33.6844C62.5958 33.1994 63.3393 32.9555 64.3705 32.9555H69.1643C69.8972 32.9555 70.4565 32.9953 70.8448 33.0761C71.2318 33.1556 71.4266 33.2391 71.4266 33.324L71.1086 34.652C70.9283 34.6201 70.3942 34.5857 69.5075 34.5473C68.6209 34.5101 67.334 34.4916 65.6455 34.4916H64.833C63.9835 34.4916 63.5593 34.8706 63.5593 35.6287V39.7108C63.5593 40.074 63.6521 40.3536 63.8377 40.5511C64.0232 40.7486 64.3559 40.8467 64.833 40.8467H65.4864C67.2491 40.8467 68.6169 40.8281 69.5884 40.791C70.5599 40.7539 71.1629 40.7141 71.3962 40.6704L72.0496 41.7267C72.0496 41.7797 71.9621 41.8606 71.7871 41.9666C71.6122 42.0739 71.2901 42.1694 70.8236 42.2542C70.3558 42.339 69.6825 42.3827 68.8011 42.3827H64.3731L64.3691 42.3854ZM28.8499 42.3853V34.2543L28.6909 32.9581H35.747C36.4269 32.9581 36.9597 33.0495 37.3481 33.2298C37.7351 33.4114 38.0227 33.6486 38.2082 33.9415C38.3938 34.2357 38.5131 34.5472 38.5661 34.8785C38.6191 35.2099 38.6456 35.524 38.6456 35.8235V36.7685C38.6456 37.0137 38.6085 37.2893 38.5343 37.5928C38.46 37.8963 38.3222 38.1906 38.1208 38.4729C37.9193 38.7552 37.6264 38.9911 37.2447 39.1766C36.863 39.3635 36.3633 39.4563 35.747 39.4563H34.1222C33.4529 39.4563 32.8286 39.4404 32.2508 39.4086C31.6716 39.3768 31.2395 39.3503 30.9532 39.3291V42.3866H28.8512L28.8499 42.3853ZM30.9519 37.9189H35.2845C35.7629 37.9189 36.0916 37.8009 36.2719 37.5663C36.4521 37.3317 36.5423 37.0494 36.5423 36.7181V35.7095C36.5423 35.3676 36.4521 35.08 36.2719 34.8454C36.0916 34.6108 35.7669 34.4928 35.3004 34.4928H30.9519V37.9189ZM13.6534 42.3853C12.9311 42.3853 12.4009 42.3534 12.0603 42.2898C11.721 42.2262 11.5501 42.1507 11.5501 42.0658L12.1876 40.6729C12.4314 40.7153 13.0398 40.7551 14.0112 40.7935C14.9827 40.8306 16.3187 40.8492 18.0178 40.8492H18.32C18.7759 40.8492 19.1006 40.767 19.2915 40.6013C19.4823 40.4357 19.5777 40.156 19.5777 39.7611V39.4403C19.5777 39.0666 19.5009 38.8002 19.3471 38.6398C19.1934 38.4794 18.8501 38.3999 18.32 38.3999H14.6249C13.5527 38.3999 12.772 38.1998 12.283 37.7995C11.7939 37.3993 11.5501 36.7459 11.5501 35.838V35.5822C11.5501 35.113 11.6375 34.681 11.8125 34.286C11.9874 33.8911 12.287 33.5743 12.7124 33.3331C13.1365 33.0932 13.721 32.9726 14.4645 32.9726H18.7971C19.5194 32.9726 20.1026 33.0097 20.5492 33.0853C20.9959 33.1595 21.2185 33.2403 21.2185 33.3251L20.9004 34.6704C20.6248 34.6386 19.9979 34.6041 19.0211 34.5657C18.0443 34.5286 16.7322 34.51 15.0861 34.51L14.9112 34.4941C14.4221 34.4941 14.0934 34.5935 13.9238 34.7897C13.7541 34.9871 13.6627 35.235 13.6534 35.5345V35.8062C13.6534 36.1587 13.7515 36.4225 13.9476 36.5988C14.1438 36.775 14.4711 36.8625 14.9271 36.8625H18.4631C19.143 36.8625 19.7222 36.9314 20.1993 37.0706C20.6778 37.2098 21.0436 37.4629 21.298 37.8313C21.5525 38.1998 21.6797 38.7419 21.6797 39.4562V39.712C21.6797 40.5125 21.4756 41.158 21.0661 41.6484C20.6566 42.1387 19.9488 42.3853 18.9402 42.3853H13.6534ZM48.09 32.9726L43.4234 42.3853H45.7481L46.7832 40.3522H52.4862L53.4258 42.3853H55.8791L51.2284 32.9726H48.09ZM51.8977 38.7843H47.3597L49.5571 34.4146H49.7162L51.8977 38.7843ZM78.4181 32.9726V42.3852H87.1151C87.8162 42.3852 88.3106 42.3667 88.5968 42.3296C88.8831 42.2911 89.0263 42.2514 89.0263 42.209L88.3888 40.8478H80.5201V38.3031H86.4776V36.718H80.5201V34.5087H88.3252V32.9726H78.4181ZM98.5993 42.3853L98.5835 34.4942H94.4417V32.9581H104.859V34.4942H100.701V42.3853H98.5993ZM111.23 32.9726V42.3853H113.332V32.9726H111.23ZM120.819 42.3854V34.2544L120.66 32.9741H123.081L126.681 39.3768L130.408 32.9741H132.558V42.3867H130.456V36.416H130.281L129.659 37.809L127.652 41.4272H125.725L123.719 37.809L123.081 36.416H122.922V42.3867H120.82L120.819 42.3854ZM139.885 32.9726V42.3853H148.582C149.283 42.3853 149.778 42.3667 150.064 42.3296C150.35 42.2912 150.493 42.2514 150.493 42.209L149.856 40.8478H141.987V38.3032H147.945V36.718H141.987V34.5087H149.792V32.9726H139.885ZM63.7748 8.73253V11.0086V11.0099L60.74 12.2353L63.7748 13.4668V15.7454L57.8542 13.4069H57.842V11.0722H57.8542L63.7748 8.73253ZM98.2674 15.6244V13.3496L101.3 12.1254L98.2674 10.9012V8.62505L104.179 10.9623H104.194V13.2995H104.179L98.2674 15.6244ZM95.7286 5.40819L92.2515 17.2628H94.3162L97.7933 5.40819H95.7286ZM73.3352 10.8194C73.3718 9.89207 73.0628 8.98798 72.4751 8.30257H72.4763C72.1855 7.97881 71.8325 7.72469 71.4415 7.55731C71.0505 7.38993 70.6315 7.31418 70.21 7.33251C69.7579 7.31174 69.3071 7.38993 68.8844 7.56097C68.4616 7.73202 68.0756 7.99347 67.7518 8.32823V7.5793H65.6871V15.8689H67.7518V12.1975C67.7518 10.2928 68.3981 9.34106 69.6907 9.34106C69.907 9.33129 70.1232 9.37405 70.3224 9.46568C70.5203 9.55731 70.6974 9.69659 70.8392 9.8713C71.1409 10.2708 71.2949 10.7729 71.2704 11.2836V15.8689H73.3352V10.8194ZM75.9631 4.13154V15.9862H78.0278V4.13154H75.9631ZM87.9717 15.5513H89.6932L92.5899 7.24707H90.3835L88.7573 12.2294L87.0823 7.24707H85.472L83.797 12.2135L82.1709 7.24707H79.9644L82.8587 15.5513H84.5789L86.2833 10.668L87.9717 15.5513Z" fill="url(#paint0_linear_46_2784)"/>
<defs>
<linearGradient id="paint0_linear_46_2784" x1="37.8561" y1="-4.88078" x2="176.902" y2="79.6744" gradientUnits="userSpaceOnUse">
<stop offset="0.251308" stop-color="#996DFF"/>
<stop offset="0.623787" stop-color="#FF876E"/>
<stop offset="1" stop-color="#FFD072"/>
</linearGradient>
</defs>
</svg>
